<?xml version="1.0" encoding="UTF-8" standalone="no"?>
<!-- Created with Inkscape (http://www.inkscape.org/) -->

<svg
   xmlns:dc="http://purl.org/dc/elements/1.1/"
   xmlns:cc="http://creativecommons.org/ns#"
   xmlns:rdf="http://www.w3.org/1999/02/22-rdf-syntax-ns#"
   xmlns:svg="http://www.w3.org/2000/svg"
   xmlns="http://www.w3.org/2000/svg"
   xmlns:sodipodi="http://sodipodi.sourceforge.net/DTD/sodipodi-0.dtd"
   xmlns:inkscape="http://www.inkscape.org/namespaces/inkscape"
   id="svg2"
   version="1.1"
   inkscape:version="0.48.4 r9939"
   width="734.45667"
   height="584.43304"
   sodipodi:docname="slice.svg">
  <metadata
     id="metadata8">
    <rdf:RDF>
      <cc:Work
         rdf:about="">
        <dc:format>image/svg+xml</dc:format>
        <dc:type
           rdf:resource="http://purl.org/dc/dcmitype/StillImage" />
        <dc:title></dc:title>
      </cc:Work>
    </rdf:RDF>
  </metadata>
  <defs
     id="defs6" />
  <sodipodi:namedview
     pagecolor="#ffffff"
     bordercolor="#666666"
     borderopacity="1"
     objecttolerance="10"
     gridtolerance="10"
     guidetolerance="10"
     inkscape:pageopacity="0"
     inkscape:pageshadow="2"
     inkscape:window-width="1920"
     inkscape:window-height="1051"
     id="namedview4"
     showgrid="false"
     inkscape:zoom="0.70486674"
     inkscape:cx="147.11816"
     inkscape:cy="166.40883"
     inkscape:window-x="1920"
     inkscape:window-y="0"
     inkscape:window-maximized="1"
     inkscape:current-layer="svg2"
     fit-margin-top="0"
     fit-margin-left="0"
     fit-margin-right="0"
     fit-margin-bottom="0"
     inkscape:document-units="mm"
     units="mm" />
  <path
     style="fill:none;stroke:#0000ff;stroke-width:0.35433072;stroke-miterlimit:4;stroke-opacity:1;stroke-dasharray:none"
     d="M 41.145059,578.26383 C 40.303969,546.22006 26.383011,512.45448 4.2832678,488.8546 2.0249471,486.44295 0.17716536,484.2557 0.17716536,483.99398 0.17716536,483.04028 481.10739,2.6240772 482.9928,1.6944072 c 9.11339,-4.49363 20.14523,1.47473 21.40774,11.5818598 0.7282,5.82961 -0.69738,8.60707 -8.01662,15.61912 l -6.22415,5.96285 1.32002,1.48691 c 0.72601,0.81779 5.08793,5.71617 9.69317,10.88534 31.29642,35.12882 62.35847,77.204833 87.51287,118.543193 12.88629,21.17703 17.35423,29.27136 30.88343,55.94897 10.94635,21.58463 14.51963,29.66154 33.28256,75.23169 4.49844,10.92531 18.65961,53.32931 23.08189,69.11588 1.26685,4.5222 4.36017,16.61997 6.87418,26.88394 12.14001,49.56471 18.87405,95.87608 22.49461,154.70098 l 0.47848,7.77367 7.78968,-0.22569 c 8.96872,-0.25984 11.95997,0.35998 15.38223,3.18746 7.66637,6.33392 6.94626,18.30142 -1.4432,23.9841 l -2.29951,1.55758 -341.95395,0.16183 -341.953924,0.16182 z"
     id="path3759"
     inkscape:connector-curvature="0"
     sodipodi:nodetypes="sssssscsssssssscssscccs" />
  <path
     style="fill:none;stroke:#ff0000;stroke-width:0.35433072;stroke-linecap:butt;stroke-linejoin:miter;stroke-miterlimit:4;stroke-opacity:1;stroke-dashoffset:0"
     d="m 497.47212,15.036327 c 0,3.88074 -3.14515,7.02668 -7.02484,7.02668 -3.8797,0 -7.02485,-3.14594 -7.02485,-7.02668 0,-3.88068 3.14515,-7.0266198 7.02485,-7.0266198 3.87969,0 7.02484,3.1459398 7.02484,7.0266198 z"
     id="path3761"
     inkscape:connector-curvature="0" />
  <path
     style="fill:none;stroke:#ff0000;stroke-width:0.35433072;stroke-linecap:butt;stroke-linejoin:miter;stroke-miterlimit:4;stroke-opacity:1;stroke-dashoffset:0"
     d="m 726.81484,570.01792 c 0,3.88074 -3.14514,7.02668 -7.02483,7.02668 -3.87968,0 -7.02482,-3.14594 -7.02482,-7.02668 0,-3.88075 3.14514,-7.02669 7.02482,-7.02669 3.87969,0 7.02483,3.14594 7.02483,7.02669 z"
     id="path3761-3"
     inkscape:connector-curvature="0" />
  <path
     style="fill:none;stroke:#ff0000;stroke-width:0.35433072;stroke-linecap:butt;stroke-linejoin:miter;stroke-miterlimit:4;stroke-opacity:1;stroke-dashoffset:0"
     d="m 85.484097,566.4566 c 0,3.88075 -3.145147,7.02669 -7.024841,7.02669 -3.879701,0 -7.024848,-3.14594 -7.024848,-7.02669 0,-3.88074 3.145147,-7.02668 7.024848,-7.02668 3.879694,0 7.024841,3.14594 7.024841,7.02668 z"
     id="path3761-6"
     inkscape:connector-curvature="0" />
  <path
     style="fill:none;stroke:#ff0000;stroke-width:0.35433072;stroke-linecap:butt;stroke-linejoin:miter;stroke-miterlimit:4;stroke-opacity:1;stroke-dashoffset:0"
     d="m 45.860318,470.99058 c 0,3.88074 -3.145147,7.02668 -7.024846,7.02668 -3.8797,0 -7.024847,-3.14594 -7.024847,-7.02668 0,-3.88068 3.145147,-7.02662 7.024847,-7.02662 3.879699,0 7.024846,3.14594 7.024846,7.02662 z"
     id="path3761-7"
     inkscape:connector-curvature="0" />
</svg>
